# Blender v2.80 (sub 75) OBJ File: ''
# www.blender.org
mtllib hexagonfloor.mtl
o Sphere
v -0.203304 0.164330 -1.467868
v -0.203304 -0.000499 -1.666973
v -0.203304 -0.165329 -1.467868
v 1.017201 0.164330 -0.763209
v 1.189631 -0.000499 -0.862761
v 1.017201 -0.165329 -0.763209
v 1.017201 0.164330 0.646109
v 1.189631 -0.000499 0.745662
v 1.017201 -0.165329 0.646109
v -0.203304 0.164330 1.350768
v -0.203304 -0.000499 1.549873
v -0.203304 -0.165329 1.350768
v -0.203304 -0.173319 -0.058550
v -0.203304 0.169224 -0.058550
v -1.423809 0.164330 0.646109
v -1.596239 -0.000499 0.745661
v -1.423809 -0.165329 0.646109
v -1.423809 0.164330 -0.763209
v -1.596239 -0.000499 -0.862762
v -1.423809 -0.165329 -0.763209
vt 0.666667 0.250000
vt 0.666667 0.500000
vt 0.500000 0.500000
vt 0.500000 0.250000
vt 0.666667 0.750000
vt 0.583333 1.000000
vt 0.500000 0.750000
vt 0.583333 0.000000
vt 0.333333 0.500000
vt 0.333333 0.250000
vt 0.416667 1.000000
vt 0.333333 0.750000
vt 0.416667 0.000000
vt 0.166667 0.500000
vt 0.166667 0.250000
vt 0.250000 1.000000
vt 0.166667 0.750000
vt 0.250000 0.000000
vt 0.000000 0.500000
vt 0.000000 0.250000
vt 0.083333 1.000000
vt 0.000000 0.750000
vt 0.083333 0.000000
vt 1.000000 0.250000
vt 1.000000 0.500000
vt 0.833333 0.500000
vt 0.833333 0.250000
vt 1.000000 0.750000
vt 0.916667 1.000000
vt 0.833333 0.750000
vt 0.916667 0.000000
vt 0.750000 1.000000
vt 0.750000 0.000000
vn 0.3455 -0.7229 -0.5984
vn 0.0020 1.0000 -0.0035
vn 0.0033 -1.0000 -0.0057
vn 0.3455 0.7229 -0.5984
vn 0.6910 -0.7229 0.0000
vn 0.0040 1.0000 0.0000
vn 0.0065 -1.0000 -0.0000
vn 0.6910 0.7229 0.0000
vn 0.3455 -0.7229 0.5984
vn 0.0020 1.0000 0.0035
vn 0.0033 -1.0000 0.0057
vn 0.3455 0.7229 0.5984
vn -0.3455 -0.7229 0.5984
vn -0.0020 1.0000 0.0035
vn -0.0033 -1.0000 0.0057
vn -0.3455 0.7229 0.5984
vn -0.6910 -0.7229 -0.0000
vn -0.0040 1.0000 0.0000
vn -0.0065 -1.0000 -0.0000
vn -0.6910 0.7229 -0.0000
vn -0.3455 -0.7229 -0.5984
vn -0.0020 1.0000 -0.0035
vn -0.0033 -1.0000 -0.0057
vn -0.3455 0.7229 -0.5984
usemtl None
s off
f 3/1/1 2/2/1 5/3/1 6/4/1
f 1/5/2 14/6/2 4/7/2
f 13/8/3 3/1/3 6/4/3
f 2/2/4 1/5/4 4/7/4 5/3/4
f 6/4/5 5/3/5 8/9/5 9/10/5
f 4/7/6 14/11/6 7/12/6
f 13/13/7 6/4/7 9/10/7
f 5/3/8 4/7/8 7/12/8 8/9/8
f 9/10/9 8/9/9 11/14/9 12/15/9
f 7/12/10 14/16/10 10/17/10
f 13/18/11 9/10/11 12/15/11
f 8/9/12 7/12/12 10/17/12 11/14/12
f 12/15/13 11/14/13 16/19/13 17/20/13
f 10/17/14 14/21/14 15/22/14
f 13/23/15 12/15/15 17/20/15
f 11/14/16 10/17/16 15/22/16 16/19/16
f 17/24/17 16/25/17 19/26/17 20/27/17
f 15/28/18 14/29/18 18/30/18
f 13/31/19 17/24/19 20/27/19
f 16/25/20 15/28/20 18/30/20 19/26/20
f 20/27/21 19/26/21 2/2/21 3/1/21
f 18/30/22 14/32/22 1/5/22
f 13/33/23 20/27/23 3/1/23
f 19/26/24 18/30/24 1/5/24 2/2/24
